HIERARCHY
ROOT Hips
{
  OFFSET 267.745 86.9975 -272.335
  CHANNELS 6 Xposition Yposition Zposition Zrotation Xrotation Yrotation
  JOINT LeftUpLeg
  {
    OFFSET 8.64259 1.95398 -2.38835
    CHANNELS 3 Zrotation Xrotation Yrotation
    JOINT LeftLeg
    {
      OFFSET 43.7702 0 0
      CHANNELS 3 Zrotation Xrotation Yrotation
      JOINT LeftFoot
      {
        OFFSET 40.6238 0 0
        CHANNELS 3 Zrotation Xrotation Yrotation
        JOINT LeftToeBase
        {
          OFFSET 12.7242 0 0
          CHANNELS 3 Zrotation Xrotation Yrotation
          End Site
          {
            OFFSET 0 0 0
          }
        }
      }
    }
  }
  JOINT RightUpLeg
  {
    OFFSET -8.2249 1.95398 -2.59336
    CHANNELS 3 Zrotation Xrotation Yrotation
    JOINT RightLeg
    {
      OFFSET 43.5653 0 0
      CHANNELS 3 Zrotation Xrotation Yrotation
      JOINT RightFoot
      {
        OFFSET 40.6238 0 0
        CHANNELS 3 Zrotation Xrotation Yrotation
        JOINT RightToeBase
        {
          OFFSET 12.7242 0 0
          CHANNELS 3 Zrotation Xrotation Yrotation
          End Site
          {
            OFFSET 0 0 0
          }
        }
      }
    }
  }
  JOINT Spine
  {
    OFFSET 0.165834 0.87714 6.61349
    CHANNELS 3 Zrotation Xrotation Yrotation
    JOINT Spine1
    {
      OFFSET 7.38963 1.71661e-005 0
      CHANNELS 3 Zrotation Xrotation Yrotation
      JOINT Spine2
      {
        OFFSET 11.9445 1.14441e-005 0
        CHANNELS 3 Zrotation Xrotation Yrotation
        JOINT Spine3
        {
          OFFSET 14.7254 4.19617e-005 0
          CHANNELS 3 Zrotation Xrotation Yrotation
          JOINT Spine4
          {
            OFFSET 10.9679 0 0
            CHANNELS 3 Zrotation Xrotation Yrotation
            JOINT RightShoulder
            {
              OFFSET 2.46616 -1.6653 3.69651
              CHANNELS 3 Zrotation Xrotation Yrotation
              JOINT RightArm
              {
                OFFSET 13.0012 0 0
                CHANNELS 3 Zrotation Xrotation Yrotation
                JOINT RightForeArm
                {
                  OFFSET 28.7848 1.52588e-005 0
                  CHANNELS 3 Zrotation Xrotation Yrotation
                  JOINT RightHand
                  {
                    OFFSET 26.5688 1.52588e-005 0
                    CHANNELS 3 Zrotation Xrotation Yrotation
                    End Site
                    {
                      OFFSET 0 0 0
                    }
                  }
                }
              }
            }
            JOINT LeftShoulder
            {
              OFFSET 2.38034 -1.29275 -3.7523
              CHANNELS 3 Zrotation Xrotation Yrotation
              JOINT LeftArm
              {
                OFFSET 16.3182 6.10352e-005 0
                CHANNELS 3 Zrotation Xrotation Yrotation
                JOINT LeftForeArm
                {
                  OFFSET 27.0901 0 0
                  CHANNELS 3 Zrotation Xrotation Yrotation
                  JOINT LeftHand
                  {
                    OFFSET 24.5451 1.52588e-005 0
                    CHANNELS 3 Zrotation Xrotation Yrotation
                    End Site
                    {
                      OFFSET 0 0 0
                    }
                  }
                }
              }
            }
            JOINT Neck
            {
              OFFSET 5.0226 -0.0266342 0
              CHANNELS 3 Zrotation Xrotation Yrotation
              JOINT Head
              {
                OFFSET 6.69364 2.86102e-005 0
                CHANNELS 3 Zrotation Xrotation Yrotation
                End Site
                {
                  OFFSET 0 0 0
                }
              }
            }
          }
        }
      }
    }
  }
}
MOTION
Frames:	9
Frame Time:	0.0416667
18.0274 77.3241 -13.6544 111.006 -34.3028 117.179 178.305 38.8734 84.0819 -74.054 16.9757 2.92012 57.8931 5.06863 22.8427 36.0947 -0.59993 -4.15884 176.687 33.2167 71.6064 -72.1716 -13.7038 -3.31438 54.6631 8.52085 19.8167 51.1434 -5.4699 0.516019 -0.593093 10.4555 -90.4776 5.95646 -1.38553 -0.898688 -5.71402 -1.42374 -0.836841 -28.2505 -1.0514 -1.27354 -8.23782 -1.05141 -1.27354 102.001 -45.0137 -82.4364 27.4171 -11.8355 20.3199 -4.41204 0.854221 -52.0344 -6.64487 -0.0938712 -3.82924 -84.2389 -46.1658 86.6966 -1.81587 -9.83749 -1.73064 -4.16021 -8.12467 -18.1829 10.1162 -0.712613 -10.0508 -1.54629 7.00525 -16.1037 -18.264 5.06524 31.0179 
17.8343 75.908 0.128729 102.755 -19.3198 112.862 175.015 41.8286 90.4912 -86.6131 22.9598 3.69934 64.2472 13.1294 28.0579 43.1273 -1.62983 -3.85223 177.265 23.0508 72.0959 -36.0692 -21.2257 -3.87792 46.9244 12.8735 27.3074 71.6218 -10.9454 -0.610503 -0.79716 10.8034 -91.2752 5.23507 -2.12105 -2.45699 -6.4364 -2.22709 -2.36131 -28.9583 -1.28501 -2.98049 -8.94561 -1.28499 -2.98048 103.185 -46.4648 -80.4985 27.1554 -8.74366 26.0152 -6.99352 -3.14666 -47.3455 -4.60237 -0.081551 -4.14296 -85.6671 -47.2476 84.5995 1.52019 -14.9713 -25.7424 -6.35248 -14.7316 -20.3763 9.1547 -0.807521 -11.6097 0.431609 8.51949 -18.02 -20.093 5.27985 39.4995 
15.4388 73.5158 12.4685 97.0007 -3.25393 109.08 174.246 49.2185 94.0117 -93.2784 23.0658 3.34853 67.8278 16.201 24.9391 43.8058 -1.76204 -0.789534 174.884 27.3154 73.2067 -50.9494 -19.4877 -2.00691 50.2045 10.9737 19.3055 70.1686 -9.99821 1.30902 -1.18235 11.3041 -91.8265 4.20245 -3.10003 -3.56865 -7.46921 -3.25402 -3.42888 -29.9789 -1.88528 -4.3342 -9.96621 -1.88526 -4.33419 103.244 -46.9329 -80.4161 26.9194 -12.49 25.2779 -15.1181 -11.9388 -44.2062 -0.161182 -0.0223869 -5.32969 -86.0542 -44.7711 83.584 -0.267565 -15.1067 -37.9729 -6.01804 -7.08018 -45.6331 3.22031 -0.583436 -14.3695 8.76656 10.1002 -21.7058 -22.747 6.69885 46.7076 
13.8359 73.379 21.3452 90.955 5.84344 108.029 -166.872 55.0432 81.8484 -89.0267 20.0969 0.700398 67.2628 13.5971 19.9224 40.2865 -1.26549 -0.690556 172.547 32.6362 76.404 -63.6713 -15.7214 -0.491921 66.4626 1.81246 15.4936 66.496 -10.4182 -3.99642 -1.27646 11.6644 -92.4059 3.44708 -3.50898 -4.71701 -8.22713 -3.713 -4.55832 -30.7081 -1.93164 -5.5512 -10.6955 -1.93164 -5.55121 102.505 -48.6866 -81.624 13.4317 -10.2345 4.6192 -11.5148 -25.1401 -27.8727 -0.200999 -0.00592104 -3.48349 -87.3164 -43.9468 81.419 -8.59251 -12.495 -45.7452 -2.20535 -3.68451 -55.942 4.06096 -0.71154 -15.3745 12.3378 11.5387 -22.592 -21.4908 8.81999 51.4649 
13.798 74.9824 26.9064 86.0119 7.10015 106.852 -150.493 54.1105 71.3692 -83.6735 12.9242 -1.67274 64.9649 11.0677 18.0432 46.27 -2.10908 -4.1748 172.785 38.2268 78.6166 -66.5864 -12.9612 -0.151122 64.7358 3.44205 16.7773 71.0531 -9.8989 2.3517 -1.19913 11.5035 -92.4202 3.77071 -3.36672 -4.7362 -7.90396 -3.57168 -4.58375 -30.3825 -1.79018 -5.52682 -10.3699 -1.79017 -5.52682 102.403 -50.4706 -81.7998 5.44294 -1.24432 -20.1057 2.54429 -30.5986 -5.17612 -7.67996 -0.359073 0.280339 -89.0779 -48.6122 79.5741 -8.17233 -6.71054 -43.1755 -1.89257 -2.31975 -45.2501 2.62353 -0.551161 -14.899 10.1274 13.2169 -22.0137 -21.454 9.85361 51.8886 
14.6523 75.9009 30.3845 84.8272 6.46009 104.54 -152.83 55.2407 71.9778 -84.8874 11.8522 -0.900791 63.9199 11.7017 21.5894 55.8479 -3.13713 -1.08973 174.169 39.4538 79.3677 -68.6438 -10.3196 -0.868042 70.2158 0.714318 17.0725 67.0265 -9.51948 0.129517 -0.710714 11.5604 -92.0728 3.69333 -2.25013 -4.05614 -7.98171 -2.42632 -3.95337 -30.4697 -0.928537 -4.54384 -10.4571 -0.928542 -4.54386 100.795 -45.2845 -84.4381 10.7466 -0.906798 -31.5771 1.20221 -30.0756 -6.41427 -6.64038 -0.335964 0.785396 -89.8581 -52.1358 79.1234 -12.6624 -9.01009 -45.4393 -0.480854 1.06836 -14.9882 8.72048 -0.881719 -12.4645 10.5239 14.03 -20.5172 -18.6152 11.8504 51.3169 
16.4657 77.0173 31.3474 84.9316 4.96987 103.892 -158.262 56.5036 76.9665 -84.7383 9.48296 -0.0108938 65.2375 13.2097 22.014 60.1683 -2.72175 5.07036 176.514 37.1192 78.8951 -66.5866 -10.3859 -1.9195 72.0365 2.91845 24.4351 62.6671 -7.61667 4.04166 -0.231212 11.7651 -91.9311 3.3073 -1.22894 -3.78426 -8.3684 -1.39421 -3.72663 -30.8595 -0.0357923 -3.97836 -10.8469 -0.0358052 -3.97838 99.6787 -40.6412 -86.5439 12.6632 -2.79105 -43.9831 -2.49103 -28.8795 -13.2176 -8.29892 -0.400259 0.469068 -90.9811 -57.1512 78.5392 -16.3135 -14.2204 -40.9957 1.68509 -2.68016 1.31289 11.3799 -0.923849 -11.1118 13.0927 15.0111 -17.0026 -16.3693 13.4775 50.7927 
19.1261 77.5004 30.3792 81.965 3.32174 104.05 -157.457 60.8094 77.4779 -83.8864 6.38978 0.151996 66.0215 14.0714 22.1775 63.2315 -2.38768 7.82354 178.186 34.8743 77.9783 -61.6283 -11.9296 -2.63129 78.1115 1.51938 28.051 60.0977 -6.41604 6.83039 0.0615566 11.4714 -91.7335 3.91034 -0.574343 -3.394 -7.76482 -0.72311 -3.3655 -30.2648 0.471609 -3.40977 -10.2521 0.471609 -3.40978 99.3338 -39.5477 -87.2285 14.8004 -5.34458 -52.6599 -12.977 -26.0317 -30.3583 -6.63396 -0.230026 -1.33306 -90.1989 -60.9986 80.3234 -14.4033 -17.0117 -27.1277 2.44812 1.88326 0.00405519 5.08752 -0.554047 -11.7091 21.1008 14.9925 -19.4987 -19.3873 13.9601 51.498 
23.4569 78.4249 27.9667 79.2503 5.43104 106.539 -158.664 64.0142 80.0156 -83.7309 0.489509 0.86095 65.7614 14.5653 23.7013 65.6487 -2.42097 8.21218 176.107 29.1548 79.4084 -53.9195 -12.5973 -1.65064 77.5821 0.994512 25.7707 65.1988 -7.37267 6.95162 0.429951 10.9908 -91.7505 4.8815 0.139979 -3.43638 -6.79398 -0.0113054 -3.43921 -29.2959 1.16573 -3.23585 -9.28321 1.16575 -3.23585 99.1551 -39.5539 -87.5483 12.058 -11.4971 -50.3188 -16.9772 -13.7608 -47.3206 -9.30719 -0.156124 -3.39701 -87.8544 -58.236 83.0456 -15.8092 -17.4832 -15.3149 2.85805 6.74923 0.00525221 2.37044 -0.320215 -9.91214 33.712 12.3729 -22.7146 -27.0466 11.7259 49.3538 
